<?xml version="1.0" encoding="UTF-8" standalone="no"?>
<!-- Created with Inkscape (http://www.inkscape.org/) -->

<svg
   xmlns:dc="http://purl.org/dc/elements/1.1/"
   xmlns:cc="http://creativecommons.org/ns#"
   xmlns:rdf="http://www.w3.org/1999/02/22-rdf-syntax-ns#"
   xmlns:svg="http://www.w3.org/2000/svg"
   xmlns="http://www.w3.org/2000/svg"
   xmlns:sodipodi="http://sodipodi.sourceforge.net/DTD/sodipodi-0.dtd"
   xmlns:inkscape="http://www.inkscape.org/namespaces/inkscape"
   width="210mm"
   height="297mm"
   viewBox="0 0 744.09448819 1052.3622047"
   id="svg2"
   version="1.1"
   inkscape:version="0.91 r13725"
   sodipodi:docname="drawing.svg">
  <defs
     id="defs4">
    <clipPath
       clipPathUnits="userSpaceOnUse"
       id="clipPath16-9">
      <path
         d="m 0,566.929 566.929,0 L 566.929,0 0,0 0,566.929 Z"
         id="path18-0"
         inkscape:connector-curvature="0" />
    </clipPath>
  </defs>
  <sodipodi:namedview
     id="base"
     pagecolor="#dddddd"
     bordercolor="#666666"
     borderopacity="1.0"
     inkscape:pageopacity="0"
     inkscape:pageshadow="2"
     inkscape:zoom="0.7"
     inkscape:cx="344.64035"
     inkscape:cy="805.85071"
     inkscape:document-units="px"
     inkscape:current-layer="layer1"
     showgrid="false"
     inkscape:window-width="1280"
     inkscape:window-height="772"
     inkscape:window-x="0"
     inkscape:window-y="0"
     inkscape:window-maximized="1" />
  <metadata
     id="metadata7">
    <rdf:RDF>
      <cc:Work
         rdf:about="">
        <dc:format>image/svg+xml</dc:format>
        <dc:type
           rdf:resource="http://purl.org/dc/dcmitype/StillImage" />
        <dc:title></dc:title>
      </cc:Work>
    </rdf:RDF>
  </metadata>
  <g
     inkscape:label="Layer 1"
     inkscape:groupmode="layer"
     id="layer1">
    <path
       style="font-style:normal;font-variant:normal;font-weight:normal;font-stretch:normal;font-size:medium;line-height:125%;font-family:'Bebas Neue';-inkscape-font-specification:'Bebas Neue, Normal';text-align:center;letter-spacing:0px;word-spacing:0px;writing-mode:lr-tb;text-anchor:middle;fill:#ffffff;fill-opacity:1;stroke:none;stroke-width:1px;stroke-linecap:butt;stroke-linejoin:miter;stroke-opacity:1"
       d="m 408.29609,178.27736 c -1.51165,0 -2.9307,0.10771 -4.25966,0.32299 l 0,8.71141 5.65628,0 0,-8.92964 c -0.47637,-0.0233 -0.90004,-0.10476 -1.39662,-0.10476 z m 3.64868,0.27933 0,8.75507 7.34098,0 0,-6.18879 c -2.01877,-1.34714 -4.48977,-2.17649 -7.34098,-2.56628 z m -266.28254,0.16584 c -2.11839,0 -4.02244,0.27643 -5.72613,0.80307 l 0,5.12382 c 1.57941,-0.7889 3.45999,-1.23077 5.72613,-1.23077 0.37848,0 0.69704,0.0651 1.0562,0.0873 l 0,-4.6874 c -0.3648,-0.0167 -0.67842,-0.0961 -1.0562,-0.0961 z m 3.30824,0.31428 0,4.75721 c 2.4323,0.54497 4.33495,1.70415 5.66503,3.51774 l 1.67594,0 0,-5.33335 c -0.88497,-0.65629 -1.85788,-1.22754 -2.9329,-1.69341 -1.30189,-0.6285 -2.80653,-0.99899 -4.40807,-1.24819 z m 160.94268,0.1309 -1.23949,7.75996 0,0.38409 7.34098,0 0,-8.14405 -6.10149,0 z m 8.35351,0 0,8.14405 7.34098,0 0,-8.14405 -7.34098,0 z m 9.59304,0 0,8.14405 1.33552,0 -1.30061,-8.14405 -0.0349,0 z m 18.61862,0 0,8.14405 7.34098,0 0,-8.14405 -7.34098,0 z m 9.59304,0 0,8.14405 7.34098,0 0,-8.14405 -7.34098,0 z m 78.11453,0 0,8.14405 4.28589,0 0,-8.14405 -4.28589,0 z m 6.53792,0 0,8.14405 5.75232,0 0,-8.14405 -5.75232,0 z m 19.71849,0 0,8.14405 6.80852,0 0,-8.14405 -6.80852,0 z m 9.06058,0 0,8.14405 3.45659,0 0,-8.14405 -3.45659,0 z m -67.71851,0.0175 c -2.9063,0.82443 -5.35778,2.18574 -7.22746,4.23346 -0.0416,0.0456 -0.0726,0.10199 -0.11352,0.14842 l 0,3.74469 7.34098,0 0,-8.12657 z m -36.12,0.0524 0,8.07419 7.34097,0 0,-6.95689 c -2.06623,-0.6912 -4.54367,-1.03511 -7.34097,-1.1173 z m -286.105776,0.15709 0.567375,2.57501 0,-2.57501 -0.567375,0 z m 2.81942,0 0,7.9171 4.172395,0 -1.737044,-7.9171 -2.435351,0 z m 34.164746,0 -1.73705,7.9171 3.69231,0 0,-7.9171 -1.95526,0 z m 4.20732,0 0,2.77581 0.60228,-2.77581 -0.60228,0 z m 49.18711,0 3.45663,7.9171 2.10365,0 0,-7.46316 -0.20076,-0.45394 -5.35952,0 z m 36.59137,0 0,7.55921 3.2995,-7.55921 -3.2995,0 z m 12.28152,0 0,7.9171 2.95909,0 0,-7.9171 -2.95909,0 z m 5.2111,0 0,4.68741 7.34098,0 0,-4.68741 -7.34098,0 z m 9.59304,0 0,4.68741 7.34098,0 0,-4.68741 -7.34098,0 z m 9.593,0 0,4.68741 6.44191,0 0,-4.68741 -6.44191,0 z m 14.8827,0 0,7.9171 2.05127,0 0,-7.9171 -2.05127,0 z m 4.30333,0 0,7.9171 0.83798,0 0,-7.9171 -0.83798,0 z m -124.70919,1.04749 c -2.02942,0.96016 -3.73796,2.27387 -5.08892,3.98033 -0.67905,0.86769 -1.27273,1.83014 -1.78069,2.88928 l 5.88325,0 c 0.28713,-0.39168 0.6489,-0.69657 0.98636,-1.03001 l 0,-5.8396 z m 66.59244,0.37532 -2.87175,6.49429 2.87175,0 0,-6.49429 z m 170.98091,0.54993 0,5.94436 5.5777,0 c -0.65451,-1.3824 -1.41221,-2.65236 -2.40915,-3.67487 -0.86755,-0.91323 -1.96532,-1.63616 -3.16855,-2.26949 z m 46.28036,1.71085 0,4.23351 2.92418,0 c -0.69304,-1.44127 -1.4927,-2.78027 -2.53134,-3.8931 -0.11625,-0.13036 -0.27226,-0.21496 -0.39284,-0.34041 z m -262.97429,1.06491 0,3.1686 2.14731,0 c -0.52481,-1.05914 -1.1425,-2.02163 -1.85925,-2.88928 -0.0836,-0.1056 -0.20157,-0.17648 -0.28806,-0.27932 z m 19.18605,0.83797 0,2.33063 1.02125,0 -1.02125,-2.33063 z m 214.44185,2.12112 c -0.0349,0.0725 -0.0792,0.13644 -0.11347,0.20951 l 0.11347,0 0,-0.20951 z m -309.813366,2.46153 0,2.66233 1.030006,4.67865 5.246043,0 -1.60611,-7.34098 -4.669939,0 z m 31.930166,0 -1.60612,7.34098 4.84452,0 0.95144,-4.37314 0,-2.96784 -4.18984,0 z m 16.03491,0 0,7.34098 3.43917,0 c 0.12547,-2.78899 0.65025,-5.24431 1.60611,-7.34098 l -5.04528,0 z m 25.69776,0 c 0.1165,0.23584 0.16613,0.52325 0.27059,0.76816 l 0,-0.76816 -0.27059,0 z m 2.52263,0 0,7.34098 4.32079,0 c -0.10516,-2.20554 -0.36875,-4.30703 -0.9078,-6.22368 -0.1097,-0.40218 -0.28951,-0.73492 -0.41898,-1.1173 l -2.99401,0 z m 15.80798,0 1.12601,2.58377 0,-2.58377 -1.12601,0 z m 3.37807,0 0,7.34098 5.22858,0 -3.22093,-7.34098 -2.00765,0 z m 22.6601,0 -3.2384,7.34098 5.0191,0 2.08617,-4.7834 0,-2.55758 -3.86687,0 z m 18.40045,0 0,7.34098 2.95909,0 0,-7.34098 -2.95909,0 z m 39.27984,0 0,7.34098 2.05127,0 0,-7.34098 -2.05127,0 z m 4.30333,0 0,7.34098 0.83798,0 0,-7.34098 -0.83798,0 z m 46.28041,0 0,7.34098 7.34098,0 0,-7.34098 -7.34098,0 z m 9.593,0 0,3.63121 0.0262,-0.17457 0.58483,3.88434 6.72996,0 0,-7.34098 -7.34098,0 z m 9.59304,0 0,7.34098 2.8718,0 -1.16967,-7.34098 -1.70213,0 z m 18.61862,0 0,7.34098 7.34098,0 0,-7.34098 -7.34098,0 z m 9.59304,0 0,7.34098 2.24331,0 0,-6.5641 5.09767,0 0,-0.77688 -7.34098,0 z m 9.59301,0 0,0.89035 c 1.43531,0.22896 2.52432,0.82139 3.26459,1.78941 0.84673,1.02818 1.33387,2.60182 1.49261,4.66122 l 2.58377,0 0,-7.34098 -7.34097,0 z m 9.59304,0 0,7.34098 7.34093,0 0,-2.40044 c -0.14869,-1.78557 -0.39102,-3.46965 -0.83798,-4.94054 l -6.50295,0 z m 15.86029,0 c -0.67511,2.13944 -0.99511,4.61979 -1.07362,7.34098 l 2.1473,0 0,-7.34098 -1.07368,0 z m 3.32569,0 0,7.34098 7.34098,0 0,-7.34098 -7.34098,0 z m 9.59304,0 0,1.60613 c 0.8786,-0.8444 1.94919,-1.38929 3.22094,-1.60613 l -3.22094,0 z m 7.90834,0 0,0.70707 c 0.46127,0.26426 0.89465,0.57313 1.26567,0.96887 1.15341,1.08127 1.73467,2.97951 1.77199,5.66504 l 4.30332,0 0,-7.34098 -7.34098,0 z m 9.593,0 0,7.34098 5.0104,0 c -0.0801,-2.72124 -0.40974,-5.20149 -1.09988,-7.34098 l -3.91052,0 z m 12.64812,0 0,7.34098 4.28589,0 0,-7.34098 -4.28589,0 z m 6.53792,0 0,7.34098 5.75232,0 0,-7.34098 -5.75232,0 z m 19.71849,0 0,7.34098 6.80852,0 0,-7.34098 -6.80852,0 z m 9.06058,0 0,7.34098 3.45659,0 0,-7.34098 -3.45659,0 z m -385.597316,9.59304 1.614838,7.34098 4.19858,0 0,-4.76597 -0.567375,-2.57501 -5.246043,0 z m 28.298956,0 -1.04747,4.78341 0,2.55757 4.31207,0 1.58865,-7.34098 -4.85325,0 z m 18.13857,0 0,7.34098 3.36934,0 0,-7.34098 -3.36934,0 z m 28.22039,0 0,7.34098 4.41681,0 0,-7.34098 -4.41681,0 z m 19.99783,0 3.20347,7.34098 3.32573,0 0,-4.77469 -1.12606,-2.56629 -5.40314,0 z m 18.37426,0 0,7.34098 1.06491,0 3.20346,-7.34098 -4.26837,0 z m 21.87451,0 0,7.34098 2.95909,0 0,-7.34098 -2.95909,0 z m 39.27984,0 0,7.34098 2.05127,0 0,-7.34098 -2.05127,0 z m 4.30333,0 0,7.34098 0.83798,0 0,-7.34098 -0.83798,0 z m 46.28041,0 0,7.34098 7.34098,0 0,-7.34098 -7.34098,0 z m 10.53573,0 1.09981,7.34098 5.29844,0 0,-7.34098 -6.39825,0 z m 8.65031,0 0,7.34098 4.40808,0 -1.16968,-7.34098 -3.2384,0 z m 18.61862,0 0,7.34098 7.34098,0 0,-7.34098 -7.34098,0 z m 9.59304,0 0,7.34098 2.24331,0 0,-7.34098 -2.24331,0 z m 14.42007,0 0,6.93942 c 0,0.14516 -0.0234,0.2606 -0.0262,0.40156 l 2.5401,0 0,-7.34098 -2.51391,0 z m 4.76598,0 0,7.34098 7.34093,0 0,-7.34098 -7.34093,0 z m 14.7168,0 0,7.34098 2.21717,0 0,-7.34098 -2.21717,0 z m 4.46918,0 0,7.34098 7.34098,0 0,-7.34098 -7.34098,0 z m 20.55647,0 0,6.38078 4.28589,0 0,-6.38078 -4.28589,0 z m 6.53791,0 0,6.38078 5.0802,0 0,-6.38078 -5.0802,0 z m 12.64812,0 0,7.34098 4.28589,0 0,-7.34098 -4.28589,0 z m 6.53792,0 0,7.34098 5.75232,0 0,-7.34098 -5.75232,0 z m 19.71849,0 0,7.34098 6.80852,0 0,-7.34098 -6.80852,0 z m 9.06058,0 0,7.34098 3.45659,0 0,-7.34098 -3.45659,0 z m -163.08128,1.80684 -0.88159,5.53414 0.88159,0 0,-5.53414 z m -111.7381,1.57123 -1.7545,3.96291 1.7545,0 0,-3.96291 z m -108.665553,6.21493 1.614838,7.34097 2.086197,0 0,-7.34097 -3.701035,0 z m 25.139103,0 0,7.34097 2.22586,0 1.59738,-7.34097 -3.82324,0 z m 19.18604,0 0,7.34097 3.36934,0 0,-7.34097 -3.36934,0 z m 28.22039,0 0,7.34097 4.41681,0 0,-7.34097 -4.41681,0 z m 24.17892,0 2.34811,5.37699 0,-5.37699 -2.34811,0 z m 4.60013,0 0,7.34097 6.47681,0 0.86416,-1.98145 0,-5.35952 -2.74961,0 -1.88541,4.27713 -1.8767,-4.27713 -0.82925,0 z m 9.59304,0 0,0.20075 0.0872,-0.20075 -0.0872,0 z m 21.87451,0 0,7.34097 2.95909,0 0,-7.34097 -2.95909,0 z m 39.27984,0 0,7.34097 2.05127,0 0,-7.34097 -2.05127,0 z m 4.30333,0 0,7.34097 0.83798,0 0,-7.34097 -0.83798,0 z m 42.78887,0 -1.17839,7.34097 2.41787,0 0,-7.34097 -1.23948,0 z m 3.49154,0 0,7.34097 6.16255,0 1.09986,-7.34097 -7.26241,0 z m 11.97601,0 1.0911,7.34097 3.86687,0 0,-7.34097 -4.95797,0 z m 7.21003,0 0,7.34097 5.94436,0 -1.17844,-7.34097 -4.76592,0 z m 18.61862,0 0,7.34097 7.34098,0 0,-7.34097 -7.34098,0 z m 9.59304,0 0,7.34097 7.34098,0 0,-1.74575 c -0.0998,0.002 -0.18627,0.0175 -0.28808,0.0175 l -4.80959,0 0,-5.61266 -2.24331,0 z m 14.19312,0 c -0.28978,1.7124 -0.86634,3.01048 -1.78069,3.82324 -0.75016,0.70604 -1.70428,1.17821 -2.81942,1.46647 l 0,2.05126 7.34097,0 0,-7.34097 -2.74086,0 z m 4.99293,0 0,7.34097 3.57882,0 c 1.68819,-1.8948 2.85173,-4.32374 3.44787,-7.34097 l -7.02669,0 z m 14.7168,0 0,7.34097 2.21717,0 0,-7.34097 -2.21717,0 z m 4.46918,0 0,7.34097 7.34098,0 0,-7.34097 -7.34098,0 z m 39.7425,0 0,7.34097 4.28589,0 0,-7.34097 -4.28589,0 z m 6.53792,0 0,7.34097 7.34098,0 0,-3.40426 -1.58866,0 0,-3.93671 -5.75232,0 z m 19.71849,0 0,3.93671 -0.53246,0 0,3.40426 7.34098,0 0,-7.34097 -6.80852,0 z m 9.06058,0 0,7.34097 3.45659,0 0,-7.34097 -3.45659,0 z m -377.531849,3.25588 0,4.08509 0.899068,0 -0.899068,-4.08509 z m 358.345819,0.68083 0,3.40426 7.34098,0 0,-3.40426 -7.34098,0 z m -341.41184,1.52757 -0.41025,1.87669 0.41025,0 0,-1.87669 z m 115.11617,1.37914 0,0.49755 7.34098,0 0,-0.49755 -7.34098,0 z m 9.59304,0 0,0.49755 7.34098,0 0,-0.49755 -7.34098,0 z m 9.593,0 0,0.49755 2.08621,0 0,-0.49755 -2.08621,0 z m -155.076891,2.74962 1.588653,7.21874 0,-7.21874 -1.588653,0 z m 3.840702,0 0,7.34097 3.002722,0 -1.606105,-7.34097 -1.396617,0 z m 16.026179,0 -1.61483,7.34097 2.52263,0 0,-7.34097 -0.9078,0 z m 3.15984,0 0,7.34097 0.13967,0 1.59738,-7.34097 -1.73705,0 z m 19.18604,0 0,7.34097 3.36934,0 0,-7.34097 -3.36934,0 z m 28.22039,0 0,7.34097 4.41681,0 0,-7.34097 -4.41681,0 z m 28.77905,0 0,7.34097 0.29679,0 1.96398,-4.50412 1.96398,4.50412 3.11622,0 0,-5.66503 -0.72449,-1.67594 -6.61648,0 z m 31.46755,0 0,7.34097 2.95909,0 0,-7.34097 -2.95909,0 z m 5.2111,0 0,1.9465 7.34098,0 0,-1.9465 -7.34098,0 z m 9.59304,0 0,1.9465 7.34098,0 0,-1.9465 -7.34098,0 z m 9.593,0 0,1.9465 2.08621,0 0,-1.9465 -2.08621,0 z m 14.8827,0 0,7.34097 2.05127,0 0,-7.34097 -2.05127,0 z m 4.30333,0 0,7.34097 0.83798,0 0,-7.34097 -0.83798,0 z m 41.25259,0 -1.17838,7.34097 3.95414,0 0,-7.34097 -2.77576,0 z m 5.02782,0 0,7.34097 4.72231,0 1.09982,-7.34097 -5.82213,0 z m 13.40753,0 1.09982,7.34097 2.42663,0 0,-7.34097 -3.52645,0 z m 5.77851,0 0,7.34097 7.34098,0 0,-0.87292 -1.03877,-6.46805 -6.30221,0 z m 18.61862,0 0,7.34097 7.34098,0 0,-7.34097 -7.34098,0 z m 9.59304,0 0,7.34097 2.24331,0 0,-0.14842 4.25095,0 c 0.30461,0 0.56155,0.0433 0.84672,0.0611 l 0,-7.25365 -7.34098,0 z m 9.59301,0 0,7.34097 7.34097,0 0,-7.34097 -7.34097,0 z m 9.59304,0 0,0.53245 c 0.31096,-0.17519 0.62755,-0.34466 0.92525,-0.53245 l -0.92525,0 z m 14.7168,0 0,7.34097 2.21717,0 0,-7.34097 -2.21717,0 z m 4.46918,0 0,7.34097 7.34098,0 0,-7.34097 -7.34098,0 z m 39.7425,0 0,7.34097 4.28589,0 0,-7.34097 -4.28589,0 z m 6.53792,0 0,7.34097 5.75232,0 0,-1.82436 1.58866,0 0,-5.51661 -7.34098,0 z m 9.59304,0 0,5.51661 7.34098,0 0,-5.51661 -7.34098,0 z m 9.59299,0 0,5.51661 0.53246,0 0,1.82436 6.80852,0 0,-7.34097 -7.34098,0 z m 9.59304,0 0,7.34097 3.45659,0 0,-7.34097 -3.45659,0 z m -94.24547,1.0911 0,6.24987 5.94431,0 c -0.034,-0.0842 -0.061,-0.17885 -0.096,-0.26189 -1.05062,-2.7316 -3.02,-4.70604 -5.84831,-5.98798 z m -190.1669,0.53245 -2.48777,5.71742 2.48777,0 0,-5.71742 z m 11.84506,5.25478 0,0.46264 0.20075,0 -0.20075,-0.46264 z m -104.964539,2.71466 0,7.34098 5.106381,0 -1.606109,-7.34098 -3.500272,0 z m 13.922529,0 -1.61484,7.34098 4.62629,0 0,-7.34098 -3.01145,0 z m 24.44953,0 0,7.34098 3.36934,0 0,-7.34098 -3.36934,0 z m 28.22039,0 0,7.34098 4.41681,0 0,-7.34098 -4.41681,0 z m 23.06163,0 -3.19474,7.34098 5.02782,0 1.63232,-3.74468 0,-3.5963 -3.4654,0 z m 10.9198,0 2.13859,4.91435 0,-4.91435 -2.13859,0 z m 4.39066,0 0,7.34098 4.3557,0 -3.17732,-7.34098 -1.17838,0 z m 21.87451,0 0,7.34098 2.95909,0 0,-7.34098 -2.95909,0 z m 39.27984,0 0,7.34098 2.05127,0 0,-7.34098 -2.05127,0 z m 4.30333,0 0,7.34098 0.83798,0 0,-7.34098 -0.83798,0 z m 39.71631,0 -1.17839,7.34098 5.49043,0 0,-7.34098 -4.31204,0 z m 6.5641,0 0,7.34098 7.34098,0 0,-2.69723 -3.64868,0 0.69831,-4.64375 -4.39061,0 z m 14.83905,0 0.69831,4.64375 -5.94436,0 0,2.69723 7.34098,0 0,-7.34098 -2.09493,0 z m 4.34699,0 0,7.34098 7.34098,0 0,-7.34098 -7.34098,0 z m 18.61862,0 0,7.34098 7.34098,0 0,-7.34098 -7.34098,0 z m 9.59304,0 0,7.34098 2.24331,0 0,-7.34098 -2.24331,0 z m 12.74413,0 c 1.16319,1.47774 1.75705,3.91911 1.78069,7.34098 l 2.40916,0 0,-7.34098 -4.18985,0 z m 6.44192,0 0,7.34098 7.34093,0 0,-3.97163 c -0.15321,-1.18959 -0.36156,-2.31914 -0.64594,-3.36935 l -6.69499,0 z m 14.7168,0 0,7.34098 2.21717,0 0,-7.34098 -2.21717,0 z m 4.46918,0 0,7.34098 7.34098,0 0,-7.34098 -7.34098,0 z m 39.7425,0 0,7.34098 4.28589,0 0,-7.34098 -4.28589,0 z m 6.53792,0 0,7.34098 5.75232,0 0,-7.34098 -5.75232,0 z m 19.71849,0 0,7.34098 6.80852,0 0,-7.34098 -6.80852,0 z m 9.06058,0 0,7.34098 3.45659,0 0,-7.34098 -3.45659,0 z m -54.50302,0.27933 0,7.06165 4.28589,0 0,-7.06165 -4.28589,0 z m 6.53791,0 0,7.06165 5.0802,0 0,-7.06165 -5.0802,0 z m -329.182671,9.31371 1.614838,7.34093 5.219858,0 -1.614838,-7.34093 -5.219858,0 z m 11.434801,0 -1.61484,7.34093 4.95799,0 1.59739,-7.34093 -4.94054,0 z m 26.55319,0 0,7.34093 4.11129,0 c -0.48291,-1.82503 -0.74195,-3.83263 -0.74195,-6.04035 l 0,-1.30058 -3.36934,0 z m 28.22039,0 0,7.34093 3.7185,0 c 0.42446,-2.01783 0.69831,-4.11856 0.69831,-6.37205 l 0,-0.96888 -4.41681,0 z m 19.18605,0 0,7.34093 1.53628,0 3.19474,-7.34093 -4.73102,0 z m 19.18604,0 0,0.48008 2.98523,6.86085 4.3557,0 0,-2.67975 -2.01636,-4.66118 -5.32457,0 z m 21.87451,0 0,7.34093 2.95909,0 0,-7.34093 -2.95909,0 z m 39.27984,0 0,7.34093 2.05127,0 0,-7.34093 -2.05127,0 z m 4.30333,0 0,7.34093 0.83798,0 0,-7.34093 -0.83798,0 z m 38.18003,0 -1.17839,7.34093 7.02671,0 0,-7.34093 -5.84832,0 z m 8.10038,0 0,7.34093 1.8767,0 0.25313,-1.67593 5.21115,0 0,-5.665 -7.34098,0 z m 9.593,0 0,5.665 7.34098,0 0,-5.665 -7.34098,0 z m 9.59304,0 0,7.34093 7.34098,0 0,-7.34093 -7.34098,0 z m 18.61862,0 0,7.34093 7.34098,0 0,-7.34093 -7.34098,0 z m 9.59304,0 0,7.34093 2.24331,0 0,-7.34093 -2.24331,0 z m 14.53354,0 0,7.34093 2.40044,0 0,-7.34093 -2.40044,0 z m 4.65251,0 0,7.34093 7.34093,0 0,-7.34093 -7.34093,0 z m 14.7168,0 0,1.08235 c 5e-5,2.3001 0.26883,4.34162 0.67217,6.25858 l 1.545,0 0,-7.34093 -2.21717,0 z m 4.46918,0 0,7.34093 7.34098,0 0,-7.34093 -7.34098,0 z m 20.55647,0 0,1.85922 c 0,2.51472 -0.49921,4.31835 -1.44024,5.48171 l 5.72613,0 0,-7.34093 -4.28589,0 z m 6.53791,0 0,7.34093 4.39065,0 c 0.41202,-1.917 0.68955,-3.95844 0.68955,-6.25858 l 0,-1.08235 -5.0802,0 z m 12.64812,0 0,7.34093 4.28589,0 0,-7.34093 -4.28589,0 z m 6.53792,0 0,7.34093 5.75232,0 0,-7.34093 -5.75232,0 z m 19.71849,0 0,7.34093 6.80852,0 0,-7.34093 -6.80852,0 z m 9.06058,0 0,7.34093 3.45659,0 0,-7.34093 -3.45659,0 z m -132.05019,1.36167 0,5.97926 0.96021,0 -0.96021,-5.97926 z m -161.95522,3.10751 -1.24824,2.87175 1.24824,0 0,-2.87175 z m -81.029988,5.12381 2.304418,10.48335 2.5401,0 0,-10.48335 -4.844518,0 z m 7.218768,0 -0.12221,0.55865 0,9.9247 2.80197,0 2.27823,-10.48335 -4.95799,0 z m 28.65684,0 0,1.27444 c 0.60118,1.56533 1.30765,3.03537 2.25205,4.29456 1.35054,1.63491 3.06034,2.93898 5.08892,3.96291 l 0,-5.76975 c -0.46803,-0.43972 -0.92109,-0.89151 -1.29187,-1.44028 -0.45945,-0.72745 -0.85466,-1.50093 -1.19586,-2.32188 l -4.85324,0 z m 25.89852,0 c -0.36993,0.82077 -0.80297,1.59457 -1.3006,2.32188 -1.34257,1.98704 -3.34874,3.23291 -5.97054,3.78834 l 0,4.75721 c 1.60172,-0.23337 3.10605,-0.586 4.40807,-1.16967 1.07532,-0.5018 2.04774,-1.08999 2.9329,-1.74575 l 0,-7.95201 -0.0699,0 z m 2.32187,0 0,5.83961 c 0.0863,-0.0986 0.20464,-0.16961 0.28806,-0.27061 1.26981,-1.60394 2.19348,-3.48502 2.86307,-5.569 l -3.15113,0 z m 14.70812,0 -4.56518,10.48335 5.02783,0 1.76322,-4.05019 0,-6.43316 -2.22587,0 z m 4.47793,0 0,1.26567 0.54989,-1.26567 -0.54989,0 z m 23.14889,0 3.37808,7.75997 0,-7.75997 -3.37808,0 z m 17.91166,0 0,10.48335 2.95909,0 0,-10.48335 -2.95909,0 z m 39.27984,0 0,10.48335 2.05127,0 0,-10.48335 -2.05127,0 z m 4.30333,0 0,10.48335 7.34098,0 0,-4.69612 -6.503,0 0,-5.78723 -0.83798,0 z m 36.68738,0 0,10.25641 7.34097,0 0,-10.25641 -7.34097,0 z m 9.59303,0 0,10.25641 0.009,0 1.53627,-10.25641 -1.54499,0 z m 19.18604,0 0,9.27006 0.14838,0.98635 7.1926,0 0,-10.25641 -7.34098,0 z m 9.59299,0 0,10.25641 2.95909,0 -1.64103,-10.25641 -1.31806,0 z m 9.02563,0 0,10.25641 7.34098,0 0,-10.25641 -7.34098,0 z m 9.59304,0 0,10.25641 2.24331,0 0,-10.25641 -2.24331,0 z m 14.53354,0 0,0.64594 0,3.91053 c 0.0745,1.04279 0.15249,1.90463 0.22695,2.575 0.149,0.67038 0.29622,1.22902 0.44518,1.67594 0.14895,0.44692 0.29621,0.92762 0.44517,1.449 l 1.28314,0 0,-10.25641 -2.40044,0 z m 4.65251,0 0,10.25641 7.34093,0 0,-10.25641 -7.34093,0 z m 15.90396,0 c 0.2766,0.86599 0.65723,1.63376 1.03001,2.40916 l 0,-2.40916 -1.03001,0 z m 3.28202,0 0,5.97056 c 0.0419,0.0483 0.0709,0.10941 0.11352,0.15709 1.8696,2.00317 4.32138,3.33145 7.22746,4.13747 l 0,-10.26512 -7.34098,0 z m 9.59304,0 0,10.84125 c 1.32901,0.2104 2.74801,0.31422 4.25966,0.31422 0.49662,0 0.92016,-0.082 1.39662,-0.10471 l 0,-11.05076 -5.65628,0 z m 7.90834,0 0,10.88491 c 2.85112,-0.38096 5.32221,-1.19649 7.34098,-2.51392 l 0,-8.37099 -7.34098,0 z m 9.593,0 0,6.46811 c 0.12183,-0.12393 0.27539,-0.21157 0.39284,-0.34046 1.54017,-1.6868 2.69344,-3.73628 3.47407,-6.12765 l -3.86691,0 z m 12.64812,0 0,10.25641 4.28589,0 0,-10.25641 -4.28589,0 z m 6.53792,0 0,10.25641 5.75232,0 0,-10.25641 -5.75232,0 z m 19.71849,0 0,10.25641 6.80852,0 0,-10.25641 -6.80852,0 z m 9.06058,0 0,10.25641 3.45659,0 0,-10.25641 -3.45659,0 z m -262.97432,0.26185 0,10.2215 4.41679,0 -4.41679,-10.2215 z m -66.59246,5.05402 0,4.99291 c 1.72067,0.50409 3.57973,0.84669 5.72613,0.84669 0.378,0 0.69119,-0.0803 1.0562,-0.096 l 0,-4.69612 c -0.3601,0.0212 -0.67727,0.096 -1.0562,0.096 -2.24643,0 -4.14521,-0.3974 -5.72613,-1.14348 z m 84.08508,0.47136 0,4.69612 7.34098,0 0,-4.69612 -7.34098,0 z m 9.59304,0 0,4.69612 7.34098,0 0,-4.69612 -7.34098,0 z m 9.593,0 0,4.69612 6.44191,0 0,-4.69612 -6.44191,0 z m 28.77902,0 0,4.69612 5.65633,0 0,-4.69612 -5.65633,0 z m 7.90839,0 0,4.69612 7.34094,0 0,-4.69612 -7.34094,0 z"
       id="path4175"
       inkscape:export-xdpi="50"
       inkscape:export-ydpi="50"
       inkscape:connector-curvature="0" />
    <g
       id="g4170"
       transform="matrix(0.26408675,0,0,0.26408675,29.401306,266.35918)"
       inkscape:export-xdpi="50"
       inkscape:export-ydpi="50">
      <path
         inkscape:connector-curvature="0"
         id="path22-6"
         d="m 291.11554,620.28672 -81.56055,70.46094 c 6.11902,7.08528 12.52076,13.96816 19.19141,20.64063 34.94055,34.93872 75.6546,62.38202 121.01758,81.56836 47.01969,19.88774 96.9043,29.9707 148.26758,29.9707 51.36328,0 101.24798,-10.08296 148.26948,-29.9707 45.3611,-19.18634 86.0788,-46.62964 121.0157,-81.56836 6.6725,-6.67247 13.0722,-13.55535 19.1894,-20.64063 l -81.5586,-70.46094 c -50.0737,58.09603 -124.2014,94.87305 -206.91598,94.87305 -82.71461,0 -156.84048,-36.77702 -206.91602,-94.87305 z m -1.84961,44.5 c 4.10249,2.5225 8.23322,5.51963 12.38867,8.98829 12.07549,10.08452 14.48097,19.47787 7.21485,28.17968 -3.9454,4.72352 -8.2918,7.16946 -13.03907,7.33203 -4.7491,0.16439 -9.73485,-1.93293 -14.95703,-6.29296 -1.38454,-1.15439 -2.49534,-2.17415 -3.33008,-3.05274 l -10.14257,12.14844 -10.38672,-8.67383 32.25195,-38.62891 z m 416.64061,4.52539 c 4.3326,-0.21529 8.1621,1.67975 11.4883,5.6836 1.8613,2.24486 2.8992,4.90256 3.1074,7.97851 0.2083,3.07413 -0.4515,5.93949 -1.9785,8.58985 l 0.0898,0.10547 c 1.569,-0.28129 3.1019,-0.24524 4.5997,0.10547 1.4941,0.35252 3.2873,1.13468 5.3769,2.3457 l 12.7149,7.48828 -10.9454,9.08789 -11.7382,-7.39453 c -1.4266,-0.91877 -2.6626,-1.39486 -3.711,-1.42774 -1.0503,-0.0292 -2.0728,0.36801 -3.0683,1.19727 l -2.4024,1.99414 11.3067,13.61524 -10.4102,8.64843 -32.1562,-38.71093 c 4.1847,-4.37647 8.5922,-8.4871 13.2207,-12.33204 5.3391,-4.43401 10.1732,-6.7593 14.5058,-6.97461 z m -412.4785,11.60938 -9.43359,11.29492 c 0.5845,0.67035 1.34138,1.3913 2.26562,2.16211 2.30697,1.92704 4.52867,2.87884 6.66211,2.84961 2.13344,-0.0274 4.0134,-1.01626 5.64453,-2.9707 3.11431,-3.72987 2.27523,-7.59575 -2.51953,-11.59961 -0.78177,-0.65391 -1.65471,-1.23037 -2.61914,-1.73633 z m 409.5488,1.42773 c -1.6813,-0.0324 -3.5009,0.76498 -5.459,2.39063 -1.1398,0.94799 -2.0444,1.84854 -2.7148,2.70703 l 8.2051,9.87891 2.9355,-2.44141 c 1.8174,-1.50693 2.8721,-3.15255 3.168,-4.93164 0.2941,-1.77908 -0.2054,-3.4522 -1.5059,-5.01758 -1.4046,-1.6914 -2.9475,-2.55351 -4.6289,-2.58594 z m -379.0781,9.56055 12.73242,8.42774 -27.96874,42.25 -12.73438,-8.42774 27.9707,-42.25 z m 342.8887,7.00195 c 1.9404,-0.003 3.8666,0.26634 5.7754,0.8086 6.1099,1.73707 11.2414,6.07905 15.4023,13.02734 4.1591,6.94829 5.5604,13.52364 4.2051,19.72852 -1.3553,6.20304 -5.2503,11.23148 -11.6817,15.08008 -6.4332,3.85224 -12.7007,4.91089 -18.8105,3.17382 -6.1081,-1.73525 -11.2414,-6.07905 -15.4023,-13.02734 -4.1591,-6.94829 -5.5622,-13.52377 -4.2051,-19.73047 1.3553,-6.20305 5.2503,-11.23161 11.6816,-15.08203 4.4216,-2.64716 8.7661,-3.97199 13.0352,-3.97852 z m -323.23635,6.59571 c 5.677,2.10422 11.19771,4.51889 16.56054,7.24414 12.37687,6.28524 16.21049,14.06903 11.4961,23.35351 -1.32061,2.59922 -3.35193,4.60369 -6.0918,6.01563 -2.74168,1.40829 -5.63245,1.94054 -8.67187,1.58984 l -0.0625,0.12305 c 0.88224,1.33157 1.45623,2.75127 1.72656,4.26367 0.26851,1.51241 0.26344,3.4689 -0.0215,5.86719 l -1.83007,14.64062 -12.68555,-6.44531 2.13281,-13.70508 c 0.27947,-1.67497 0.22707,-3.00105 -0.16016,-3.97461 -0.38723,-0.9754 -1.15809,-1.75546 -2.3125,-2.34179 l -2.78515,-1.41602 -8.01563,15.78125 -12.06836,-6.13086 22.78907,-44.86523 z m 320.71875,5.70703 c -1.517,0.0612 -3.0629,0.56193 -4.6367,1.50391 -5.7555,3.44673 -6.1387,9.33929 -1.1485,17.67578 4.9902,8.33649 10.3656,10.78281 16.1211,7.33789 5.7592,-3.44675 6.1405,-9.3393 1.1485,-17.67578 -3.4308,-5.7326 -7.0426,-8.67944 -10.836,-8.8418 -0.2155,-0.009 -0.4317,-0.009 -0.6484,0 z m -258.17969,3.63086 14.49609,4.80273 -14.47461,8.36719 -10.54101,-3.49609 10.51953,-9.67383 z m 175.21489,3.11914 -7.7579,14.80273 -10.77535,2.68555 3.71675,-13.80078 14.8165,-3.6875 z m -230.08598,2.33398 -5.81641,11.45117 3.4043,1.72852 c 2.10421,1.06855 4.03152,1.38603 5.7832,0.95313 1.74986,-0.43655 3.08735,-1.55938 4.00977,-3.375 1.99095,-3.918 0.71872,-7.0308 -3.82032,-9.33594 -1.32062,-0.67035 -2.50843,-1.14424 -3.56054,-1.42188 z m 272.67188,0.52539 c 5.7992,-0.15167 9.7405,2.3129 11.8262,7.39649 1.1252,2.73986 1.2001,5.42391 0.2265,8.04687 -0.9754,2.62661 -2.8192,4.77349 -5.539,6.4375 l 0.0546,0.12696 c 3.4705,-0.92425 6.6331,-0.74345 9.4844,0.53515 2.8531,1.28226 4.8559,3.3364 6.0156,6.16211 1.9838,4.8386 1.8726,9.04686 -0.3339,12.62696 -2.2065,3.5819 -6.7999,6.80377 -13.7774,9.66601 -5.224,2.14258 -10.2779,3.84267 -15.164,5.0957 l -18.9688,-46.23437 c 4.1445,-2.45126 8.722,-4.70488 13.7305,-6.75977 4.8167,-1.97544 8.9657,-3.0086 12.4453,-3.09961 z m -228.64063,7.97657 13.83398,4.58593 -0.79102,53.11914 -13.96679,-4.63086 1.01562,-9.90234 -12.38672,-4.10547 -5.09961,8.54688 -13.70507,-4.54297 31.09961,-43.07031 z m 225.60353,3.25586 c -1.1762,-0.01 -2.5651,0.3144 -4.1699,0.97265 -0.9425,0.38724 -1.863,0.88847 -2.7598,1.50586 l 3.6894,8.99219 1.9258,-0.79102 c 4.9227,-2.01837 6.727,-4.63641 5.4082,-7.8457 -0.7683,-1.87224 -2.1333,-2.81731 -4.0937,-2.83398 z m -41.9238,3.66406 27.7343,45.31055 -14.2773,3.55468 -4.4356,-8.91015 -12.664,3.15234 0.2617,9.95117 -14.00977,3.48828 3.24805,-53.02539 14.14262,-3.52148 z m -156.1563,2.09375 39.59375,7.27734 -2.07031,11.26563 -12.83398,-2.35938 -7.0918,38.56836 -13.92578,-2.56055 7.08984,-38.57031 -12.83398,-2.35937 2.07226,-11.26172 z m -24.51758,4.41211 -9.8496,16.48047 8.0371,2.66406 1.94336,-19.09766 -0.13086,-0.0469 z m 152.5625,0.3789 1.2168,11.38672 -12.97461,1.38672 4.16407,38.99609 -14.07813,1.50391 -4.16602,-38.99414 -12.97461,1.38672 -1.21679,-11.38672 40.02929,-4.2793 z m -81.57812,2.63477 15.23438,1.04297 -3.46485,50.55078 -15.23437,-1.04297 3.46484,-50.55078 z m 105.4023,3.70703 -0.1347,0.0332 0.4883,19.19141 8.2148,-2.04492 -8.5684,-17.17969 z m 54.4512,1.16406 c -1.2887,10e-4 -2.8149,0.36193 -4.5801,1.08594 l -3.2109,1.32031 4.2148,10.27344 c 1.0704,-0.18996 2.077,-0.47799 3.0196,-0.86523 2.5681,-1.0521 4.2483,-2.29207 5.041,-3.7168 0.7891,-1.4229 0.7795,-3.12275 -0.0274,-5.0918 -0.8231,-2.00695 -2.3091,-3.00769 -4.457,-3.00586 z"
         style="fill:#ffffff;fill-opacity:1;fill-rule:nonzero;stroke:none" />
      <path
         d="m 400.04685,298.86036 c -7.83053,2.81658 -18.12327,4.76371 -21.27594,11.8362 l 21.8367,-1.6293 -0.16439,209.62867 c -1.64392,11.71017 -7.26064,18.68586 -7.7666,35.12321 -0.6046,19.56444 6.4058,57.18457 15.10943,70.21535 -2.254,-38.35624 -6.71084,-54.37712 14.86284,-82.9137 14.21988,-18.81007 41.54361,-26.23875 73.00636,-32.5112 45.10726,-8.99223 101.32559,-15.10212 138.85439,-42.79117 30.1348,-22.23307 31.0554,-64.02144 18.2986,-98.75559 -32.281,-87.90025 -148.97907,-88.50119 -229.88537,-73.95253 l -1.41194,-33.88661 -19.70326,-0.19362 c -0.17353,6.68161 1.53797,34.6209 -1.76082,39.83029 m 22.62943,14.45551 c 44.6835,8.24699 76.4312,42.78751 73.43013,92.09225 -1.5946,26.18577 -11.59144,45.58399 -24.98389,57.4275 -10.47723,9.26804 -33.58705,26.45977 -48.45172,33.39527 l 0.005,-182.91502 z"
         style="fill:#ffffff;fill-opacity:1;fill-rule:evenodd;stroke:none"
         id="path26-7"
         inkscape:connector-curvature="0" />
      <path
         d="m 248.29667,468.3484 c 14.86101,138.66077 137.76757,237.20082 275.50957,223.80472 129.1534,-12.56136 239.7799,-128.57625 223.8778,-275.1954 -3.7829,-34.88392 -14.777,-69.06279 -29.5851,-95.37277 -18.4027,-32.69203 -30.7631,-45.14379 -55.8895,-69.31668 -19.6064,-18.86487 -52.1615,-36.22829 -79.045,-46.21234 C 413.17609,142.93316 228.64455,284.98587 248.29667,468.3484 M 468.21078,217.61997 c 72.36341,-10.62884 133.07506,15.90581 174.43056,49.56411 36.3836,29.6106 71.9123,79.68797 80.404,145.45379 17.3196,134.16557 -78.4368,239.38358 -192.51913,254.67383 -134.15096,17.9808 -243.31437,-79.08703 -257.57078,-193.74843 -8.73833,-70.27015 15.46561,-134.75007 49.61342,-174.59132 32.01255,-37.35162 74.89322,-70.9606 145.64193,-81.35198"
         style="fill:#ffffff;fill-opacity:1;fill-rule:evenodd;stroke:none"
         id="path30-5"
         inkscape:connector-curvature="0" />
    </g>
  </g>
</svg>
